<?xml version="1.0" encoding="utf-8"?>
<!-- Generator: Adobe Illustrator 18.0.0, SVG Export Plug-In . SVG Version: 6.00 Build 0)  -->
<!DOCTYPE svg PUBLIC "-//W3C//DTD SVG 1.1//EN" "http://www.w3.org/Graphics/SVG/1.1/DTD/svg11.dtd">
<svg version="1.1" id="Capa_1" xmlns="http://www.w3.org/2000/svg" xmlns:xlink="http://www.w3.org/1999/xlink" x="0px" y="0px"
	 viewBox="-28 -28 256 256" enable-background="new -28 -28 256 256" xml:space="preserve">
<rect x="-28" y="-31" fill="#2A2A2A" width="256" height="259"/>
<g>
	<g>
		<path fill="#00C6FF" d="M54.3,167.2h3.9v-14h24.3v14h3.9v-14h25.4v14h3.9v-14h27.1v14h3.9v-14h22.5v-3.9h-22.5v-25.4h22.5v-3.9
			h-22.5V96.7h22.5v-3.9h-22.5V77.1h-3.9v15.7h-27.1V77.1h-3.9v15.7H86.5V77.1h-3.9v15.7H58.3V77.1h-3.9v15.7H28.4v3.9h25.9v23.2
			H28.4v3.9h25.9v25.4H28.4v3.9h25.9V167.2z M86.5,149.2v-25.4h25.4v25.4H86.5z M142.9,149.2h-27.1v-25.4h27.1V149.2z M142.9,96.7
			v23.2h-27.1V96.7C115.8,96.7,142.9,96.7,142.9,96.7z M111.9,96.7v23.2H86.5V96.7C86.5,96.7,111.9,96.7,111.9,96.7z M58.3,96.7
			h24.3v23.2H58.3V96.7z M58.3,123.8h24.3v25.4H58.3V123.8z"/>
		<path fill="#00C6FF" d="M196.1,20.2l-27.2,0l-4,0v16.1c0,4.3-3.5,7.8-7.8,7.8h-9.1c-4.3,0-7.8-3.5-7.8-7.8V20.3l-10.4,0v16.1
			c0,4.3-3.5,7.8-7.8,7.8h-9.1c-4.3,0-7.8-3.5-7.8-7.8V20.3l-11.1,0v16.1c0,4.3-3.5,7.8-7.8,7.8h-9.1c-4.3,0-7.8-3.5-7.8-7.8v-16
			H57.6v16c0,4.3-3.5,7.8-7.8,7.8h-9.1c-4.3,0-7.8-3.5-7.8-7.8v-16l-29.1,0v172.2h13.8h165l13.7,0L196.1,20.2z M182.5,178.9h-165
			v-110h165V178.9z"/>
		<path fill="#00C6FF" d="M40.7,38.7h9.1c1.1,0,1.9-0.9,1.9-2V9.3c0-1.1-0.9-2-1.9-2h-9.1c-1.1,0-2,0.9-2,2v27.4
			C38.7,37.8,39.6,38.7,40.7,38.7z"/>
		<path fill="#00C6FF" d="M76.8,38.7H86c1.1,0,2-0.9,2-2V9.3c0-1.1-0.9-2-2-2h-9.1c-1.1,0-1.9,0.9-1.9,2v27.4
			C74.9,37.8,75.8,38.7,76.8,38.7z"/>
		<path fill="#00C6FF" d="M112.7,38.7h9.1c1.1,0,2-0.9,2-2V9.3c0-1.1-0.9-2-2-2h-9.1c-1.1,0-2,0.9-2,2v27.4
			C110.8,37.8,111.6,38.7,112.7,38.7z"/>
		<path fill="#00C6FF" d="M147.9,38.7h9.1c1.1,0,1.9-0.9,1.9-2V9.3c0-1.1-0.9-2-1.9-2h-9.1c-1.1,0-2,0.9-2,2v27.4
			C146,37.8,146.9,38.7,147.9,38.7z"/>
	</g>
</g>
<text transform="matrix(1 0 0 1 61.7773 161.4353)" fill="#FFFFFF" font-family="'Lato-Bold'" font-size="148.7288">L</text>
</svg>
